<?xml version="1.0" encoding="UTF-8" standalone="no"?>
<!-- Created with Inkscape (http://www.inkscape.org/) -->

<svg
   xmlns:dc="http://purl.org/dc/elements/1.1/"
   xmlns:cc="http://creativecommons.org/ns#"
   xmlns:rdf="http://www.w3.org/1999/02/22-rdf-syntax-ns#"
   xmlns:svg="http://www.w3.org/2000/svg"
   xmlns="http://www.w3.org/2000/svg"
   xmlns:sodipodi="http://sodipodi.sourceforge.net/DTD/sodipodi-0.dtd"
   xmlns:inkscape="http://www.inkscape.org/namespaces/inkscape"
   id="svg7384"
   sodipodi:docname="folder-symbolic.svg"
   version="1.1"
   inkscape:version="0.91 r12937"
   height="16"
   width="16">
  <metadata
     id="metadata90">
    <rdf:RDF>
      <cc:Work
         rdf:about="">
        <dc:format>image/svg+xml</dc:format>
        <dc:type
           rdf:resource="http://purl.org/dc/dcmitype/StillImage" />
        <dc:title>Gnome Symbolic Icon Theme</dc:title>
      </cc:Work>
    </rdf:RDF>
  </metadata>
  <sodipodi:namedview
     inkscape:cy="8"
     pagecolor="#555753"
     borderopacity="1"
     showborder="false"
     inkscape:bbox-paths="false"
     guidetolerance="10"
     inkscape:window-width="1920"
     showguides="true"
     inkscape:object-nodes="true"
     inkscape:snap-bbox="true"
     inkscape:pageshadow="2"
     inkscape:guide-bbox="true"
     inkscape:snap-nodes="true"
     bordercolor="#666666"
     objecttolerance="10"
     id="namedview88"
     showgrid="false"
     inkscape:window-maximized="1"
     inkscape:window-x="0"
     inkscape:snap-global="true"
     inkscape:window-y="28"
     gridtolerance="10"
     inkscape:window-height="1021"
     inkscape:snap-to-guides="true"
     inkscape:current-layer="layer13"
     inkscape:zoom="1"
     inkscape:cx="8"
     inkscape:snap-grids="true"
     inkscape:pageopacity="1">
    <inkscape:grid
       spacingx="1px"
       spacingy="1px"
       id="grid4866"
       empspacing="2"
       enabled="true"
       type="xygrid"
       snapvisiblegridlinesonly="true"
       visible="true" />
  </sodipodi:namedview>
  <title
     id="title9167">Gnome Symbolic Icon Theme</title>
  <defs
     id="defs7386" />
  <g
     inkscape:label="status"
     transform="translate(-442,-176)"
     inkscape:groupmode="layer"
     id="layer9"
     style="display:inline" />
  <g
     inkscape:label="devices"
     transform="translate(-442,-176)"
     inkscape:groupmode="layer"
     id="layer10" />
  <g
     inkscape:label="apps"
     transform="translate(-442,-176)"
     inkscape:groupmode="layer"
     id="layer11" />
  <g
     inkscape:label="actions"
     transform="translate(-442,-176)"
     inkscape:groupmode="layer"
     id="layer12" />
  <g
     inkscape:label="places"
     transform="translate(-442,-176)"
     inkscape:groupmode="layer"
     id="layer13">
    <path
       style="font-style:normal;font-variant:normal;font-weight:normal;font-stretch:normal;text-indent:0;text-align:start;text-decoration:none;line-height:normal;letter-spacing:normal;word-spacing:normal;text-transform:none;direction:ltr;block-progression:tb;writing-mode:lr-tb;text-anchor:start;baseline-shift:baseline;color:#000000;color-interpolation:sRGB;color-interpolation-filters:linearRGB;fill:#bebebe;fill-opacity:1;stroke:none;stroke-width:2;marker:none;visibility:visible;display:inline;overflow:visible;isolation:auto;mix-blend-mode:normal;enable-background:accumulate;clip-rule:nonzero;color-rendering:auto;image-rendering:auto;shape-rendering:auto;text-rendering:auto;font-family:sans-serif;-inkscape-font-specification:sans-serif"
       d="m 443.25977,177.96484 c -0.25251,0 -0.69563,0.0955 -0.97657,0.43555 -0.28093,0.34004 -0.28318,0.66147 -0.2832,0.85742 l 0,11.28711 c -4e-5,0.74088 0.62959,1.36133 1.36328,1.36133 l 13.27344,0 c 0.73384,0 1.36328,-0.62037 1.36328,-1.36133 l 0,-8.89453 c 0,-0.19636 -0.009,-0.57651 -0.34961,-0.91406 -0.34098,-0.33756 -0.71511,-0.3418 -0.91016,-0.3418 l -3.12109,0 -2.5293,0 c -0.11974,0 -0.0307,0.002 0.0215,0.0293 0.0522,0.0276 -0.009,-0.0141 -0.17578,-0.15039 l -2.17383,-1.77735 0.0723,0.0625 c -0.45055,-0.44674 -1.01704,-0.59375 -1.54687,-0.59375 l -4.02734,0 z m 0.74023,2 3.28711,0 c 0.11374,0 0.17871,0.0553 0.13867,0.0156 l 0.0332,0.0332 2.21094,1.8086 c 0.11719,0.0959 0.23794,0.22668 0.50781,0.36914 0.26988,0.14245 0.61193,0.20312 0.91211,0.20312 l 2.5293,0 2.38086,0 0,7.51172 -12,0 0,-9.94141 z"
       id="path4233"
       inkscape:connector-curvature="0" />
  </g>
  <g
     inkscape:label="mimetypes"
     transform="translate(-442,-176)"
     inkscape:groupmode="layer"
     id="layer14" />
  <g
     inkscape:label="emblems"
     transform="translate(-442,-176)"
     inkscape:groupmode="layer"
     id="layer15"
     style="display:inline" />
</svg>
